<?xml version="1.0" standalone="no"?>
<!DOCTYPE svg PUBLIC "-//W3C//DTD SVG 20010904//EN"
 "http://www.w3.org/TR/2001/REC-SVG-20010904/DTD/svg10.dtd">
<svg version="1.0" xmlns="http://www.w3.org/2000/svg"
 width="478.000000pt" height="314.000000pt" viewBox="0 0 478.000000 314.000000"
 preserveAspectRatio="xMidYMid meet">

<g transform="translate(0.000000,314.000000) scale(0.100000,-0.100000)"
fill="#000000" stroke="none">
<path d="M2301 2779 c-12 -5 -60 -35 -105 -67 -44 -32 -220 -156 -391 -275
-370 -259 -338 -234 -364 -277 -31 -51 -29 -124 6 -175 67 -102 255 -366 258
-363 2 2 -1 26 -6 53 -22 107 14 295 78 418 55 106 182 231 290 284 114 58
250 88 356 80 105 -8 185 -29 270 -70 37 -18 67 -32 67 -29 0 2 -62 92 -137
199 -80 115 -150 204 -168 214 -33 20 -113 25 -154 8z"/>
<path d="M2320 2021 c-119 -39 -193 -137 -193 -256 0 -152 112 -265 262 -265
111 1 189 48 239 145 29 58 35 145 13 209 -17 49 -83 121 -135 148 -44 22
-145 33 -186 19z"/>
<path d="M3074 1890 c27 -107 10 -274 -41 -394 -110 -263 -360 -429 -644 -427
-124 0 -330 56 -312 84 3 6 1 7 -6 3 -6 -4 -19 -2 -27 5 -36 30 -16 -7 82
-146 58 -83 121 -173 140 -202 62 -92 159 -107 260 -40 206 137 787 553 803
576 26 36 41 105 31 139 -6 24 -255 391 -282 417 -7 7 -9 2 -4 -15z"/>
<path d="M2931 1664 c0 -11 3 -14 6 -6 3 7 2 16 -1 19 -3 4 -6 -2 -5 -13z"/>
<path d="M707 533 c-4 -3 -7 -64 -7 -134 0 -74 -4 -130 -10 -134 -5 -3 -10
-24 -10 -46 0 -44 18 -51 58 -23 44 30 52 64 52 209 l0 135 -38 0 c-21 0 -42
-3 -45 -7z"/>
<path d="M812 389 l3 -151 33 -29 c29 -26 39 -29 102 -29 63 0 73 3 102 29
l33 29 3 151 3 151 -40 0 -41 0 0 -128 c0 -142 -4 -152 -60 -152 -56 0 -60 10
-60 152 l0 128 -41 0 -40 0 3 -151z"/>
<path d="M1163 520 c-42 -25 -62 -85 -43 -130 20 -49 55 -70 115 -70 60 0 87
-19 65 -45 -9 -11 -35 -15 -101 -15 l-89 0 0 -40 0 -40 106 0 106 0 34 34 c45
45 48 101 6 147 -25 27 -37 33 -93 38 -60 6 -64 8 -64 31 0 24 3 25 68 28 l67
3 0 39 0 40 -72 0 c-55 0 -81 -5 -105 -20z"/>
<path d="M1370 500 l0 -40 40 0 40 0 0 -140 0 -140 40 0 39 0 3 138 3 137 43
3 c42 3 42 3 42 43 l0 39 -125 0 -125 0 0 -40z"/>
<path d="M1894 506 l-34 -34 0 -146 0 -146 40 0 39 0 3 68 3 67 98 3 97 3 0
39 0 40 -100 0 c-90 0 -100 2 -100 18 0 34 21 42 112 42 l88 0 0 40 0 40 -106
0 -106 0 -34 -34z"/>
<path d="M2209 521 c-42 -33 -51 -69 -47 -181 3 -100 3 -102 36 -131 29 -26
39 -29 103 -29 68 0 73 2 106 35 l35 35 -4 115 c-3 110 -4 116 -31 142 -24 24
-36 28 -100 31 -61 3 -76 1 -98 -17z m139 -73 c7 -7 12 -42 12 -88 0 -46 -5
-81 -12 -88 -16 -16 -80 -16 -96 0 -15 15 -16 142 -2 169 12 22 78 27 98 7z"/>
<path d="M2460 360 l0 -180 46 0 45 0 -3 67 -3 68 43 3 c60 4 72 -9 72 -79 l0
-59 41 0 41 0 -6 82 c-7 111 -7 106 0 160 6 45 4 50 -29 83 l-35 35 -106 0
-106 0 0 -180z m190 85 c20 -25 -5 -45 -56 -45 -24 0 -45 5 -45 10 -1 6 -2 16
-3 23 -4 22 5 27 48 27 27 0 48 -6 56 -15z"/>
<path d="M3043 530 c-45 -18 -63 -66 -63 -168 0 -146 28 -182 143 -182 65 0
71 2 103 34 19 19 34 43 34 55 0 18 -6 21 -39 21 -22 0 -44 -6 -51 -15 -17
-20 -86 -20 -98 0 -8 15 -6 146 3 173 6 17 80 15 95 -3 7 -9 29 -15 52 -15 39
0 40 1 34 28 -4 15 -20 39 -37 55 -26 24 -37 27 -92 26 -34 0 -72 -4 -84 -9z"/>
<path d="M3280 360 l0 -180 45 0 45 0 0 70 0 70 55 0 55 0 0 -70 0 -70 40 0
40 0 0 180 0 180 -40 0 -40 0 0 -70 0 -70 -55 0 -55 0 0 70 0 70 -45 0 -45 0
0 -180z"/>
<path d="M3580 360 l0 -180 45 0 45 0 0 180 0 180 -45 0 -45 0 0 -180z"/>
<path d="M3690 394 l0 -146 34 -34 c32 -32 38 -34 101 -34 l66 0 -3 38 c-3 36
-4 37 -48 40 -24 2 -50 8 -57 14 -9 7 -13 47 -13 139 l0 129 -40 0 -40 0 0
-146z"/>
<path d="M3910 394 l0 -146 34 -34 c31 -31 39 -34 95 -34 l61 0 0 40 0 40 -49
0 c-35 0 -51 4 -55 16 -3 9 -6 72 -6 140 l0 124 -40 0 -40 0 0 -146z"/>
<path d="M1640 205 l0 -25 100 0 100 0 0 25 0 25 -100 0 -100 0 0 -25z"/>
<path d="M2760 205 l0 -25 100 0 100 0 0 25 0 25 -100 0 -100 0 0 -25z"/>
</g>
</svg>
